<svg width="1920" height="650" viewBox="0 0 1920 650" fill="none" xmlns="http://www.w3.org/2000/svg">
<path d="M0 0H1920V548.975C1170.28 685.039 749.965 682.304 0 548.975L0 0Z" fill="#6C48F0"/>
<path d="M880 302H1040V325H880V302Z" fill="#805EFF"/>
<path d="M423.07 240.359C423.403 239.515 424.597 239.515 424.93 240.359L426.669 244.768C426.771 245.025 426.975 245.229 427.232 245.331L431.641 247.07C432.485 247.403 432.485 248.597 431.641 248.93L427.232 250.669C426.975 250.771 426.771 250.975 426.669 251.232L424.93 255.641C424.597 256.485 423.403 256.485 423.07 255.641L421.331 251.232C421.229 250.975 421.025 250.771 420.768 250.669L416.359 248.93C415.515 248.597 415.515 247.403 416.359 247.07L420.768 245.331C421.025 245.229 421.229 245.025 421.331 244.768L423.07 240.359Z" fill="white"/>
<path opacity="0.5" d="M1347.07 524.359C1347.4 523.515 1348.6 523.515 1348.93 524.359L1350.39 528.05C1350.49 528.308 1350.69 528.512 1350.95 528.614L1354.64 530.07C1355.49 530.403 1355.49 531.597 1354.64 531.93L1350.95 533.386C1350.69 533.488 1350.49 533.692 1350.39 533.95L1348.93 537.641C1348.6 538.485 1347.4 538.485 1347.07 537.641L1345.61 533.95C1345.51 533.692 1345.31 533.488 1345.05 533.386L1341.36 531.93C1340.51 531.597 1340.51 530.403 1341.36 530.07L1345.05 528.614C1345.31 528.512 1345.51 528.308 1345.61 528.05L1347.07 524.359Z" fill="white"/>
<path d="M1480.07 173.359C1480.4 172.515 1481.6 172.515 1481.93 173.359L1483.39 177.05C1483.49 177.308 1483.69 177.512 1483.95 177.614L1487.64 179.07C1488.49 179.403 1488.49 180.597 1487.64 180.93L1483.95 182.386C1483.69 182.488 1483.49 182.692 1483.39 182.95L1481.93 186.641C1481.6 187.485 1480.4 187.485 1480.07 186.641L1478.61 182.95C1478.51 182.692 1478.31 182.488 1478.05 182.386L1474.36 180.93C1473.51 180.597 1473.51 179.403 1474.36 179.07L1478.05 177.614C1478.31 177.512 1478.51 177.308 1478.61 177.05L1480.07 173.359Z" fill="white"/>
<circle cx="1136" cy="134" r="5.5" stroke="white"/>
<circle cx="585" cy="471" r="3" fill="white"/>
<circle cx="719" cy="143" r="3" fill="white"/>
</svg>
