<svg width="206" height="45" viewBox="0 0 206 45" fill="none" xmlns="http://www.w3.org/2000/svg">
<path d="M119.633 4.45091C119.059 4.83301 118.579 5.41279 118.192 6.19026C118.769 3.61024 119.912 0.932155 122.147 0.120841C122.527 0.0387056 122.933 0 123.421 0C124.156 0 124.769 0.208444 125.259 0.625334C125.774 1.04222 126.032 1.53268 126.032 2.09671C126.032 2.85692 125.877 3.37804 125.484 3.77041C125.092 4.13825 124.635 4.33559 124.096 4.33559C123.728 4.33559 123.374 4.2965 122.908 4.12484C122.887 4.11768 122.855 4.10382 122.814 4.08594L122.814 4.08571C122.715 4.04238 122.562 3.97565 122.372 3.92368C122.127 3.85011 121.842 3.77041 121.548 3.77041C120.911 3.77041 120.221 4.05854 119.633 4.45091Z" fill="white"/>
<path d="M116.985 0.778887C117.294 1.08825 117.488 1.45837 117.568 1.88927C117.583 3.75389 117.606 6.63711 117.62 8.64236C117.613 8.78718 117.61 8.93497 117.61 9.08573V17.8036C117.61 18.4412 117.401 18.9807 116.985 19.4221C116.568 19.839 116.041 20.0475 115.403 20.0475C114.766 20.0475 114.239 19.839 113.822 19.4221C113.405 18.9807 113.196 18.4412 113.196 17.8036V2.36061C113.196 1.72302 113.405 1.19578 113.822 0.778887C114.239 0.337474 114.766 0.116767 115.403 0.116767C116.041 0.116767 116.568 0.337474 116.985 0.778887Z" fill="white"/>
<path d="M28.3139 0C30.398 0 32.0775 0.331059 33.3524 0.993178C34.6274 1.63077 35.2648 2.48907 35.2648 3.56808C35.2648 4.10759 35.1055 4.58578 34.7867 5.00267C34.468 5.39504 34.0512 5.59122 33.5363 5.59122C33.144 5.59122 32.8253 5.54218 32.5801 5.44408C32.3349 5.32147 32.0897 5.17433 31.8445 5.00267C31.6239 4.80649 31.4032 4.64709 31.1825 4.52448C30.9374 4.40186 30.5696 4.29151 30.0792 4.19342C29.6134 4.09532 29.2334 4.04628 28.9391 4.04628C27.1003 4.04628 25.6537 4.62257 24.5994 5.77514C23.5696 6.9032 23.0548 8.38683 23.0548 10.226C23.0548 11.9917 23.5819 13.4631 24.6362 14.6402C25.6905 15.7927 27.039 16.369 28.6817 16.369C29.8831 16.369 30.778 16.2219 31.3664 15.9276C31.5135 15.8541 31.7097 15.7314 31.9549 15.5598C32.2246 15.3636 32.4698 15.2165 32.6904 15.1184C32.9111 15.0203 33.1808 14.9712 33.4995 14.9712C34.1125 14.9712 34.5906 15.1674 34.9338 15.5598C35.3016 15.9521 35.4855 16.4549 35.4855 17.0679C35.4855 17.6565 35.1422 18.2083 34.4557 18.7232C33.7692 19.2382 32.862 19.6551 31.7342 19.9739C30.6064 20.2682 29.405 20.4153 28.13 20.4153C26.2421 20.4153 24.5749 19.9739 23.1283 19.0911C21.7063 18.2083 20.6029 16.9944 19.8184 15.4494C19.0338 13.88 18.6415 12.1388 18.6415 10.226C18.6415 8.23969 19.046 6.47405 19.8551 4.9291C20.6888 3.38416 21.8411 2.18254 23.3122 1.32424C24.7833 0.441412 26.4505 0 28.3139 0Z" fill="white"/>
<path d="M15.9981 16.1851C16.464 16.6756 16.6969 17.2273 16.6969 17.8404C16.6969 18.4535 16.4517 18.9685 15.9613 19.3854C15.4955 19.8022 14.9929 20.0107 14.4535 20.0107C13.816 20.0107 13.2766 19.7655 12.8353 19.275L5.91989 11.5025V11.4964C5.50209 11.0609 5.24512 10.4685 5.24512 9.81582C5.24512 9.15945 5.50494 8.56411 5.92683 8.1279L12.2836 1.06674C12.7495 0.60081 13.2889 0.367843 13.9018 0.367843C14.4412 0.367843 14.9193 0.60081 15.3361 1.06674C15.7775 1.50816 15.9981 1.96183 15.9981 2.42777C15.9981 3.01632 15.7039 3.56808 15.1155 4.08306L10.0371 9.19609L15.9981 16.1851Z" fill="white"/>
<path d="M4.41344 9.80898L4.41328 2.42777C4.41328 1.79017 4.20487 1.26293 3.78806 0.846038C3.37125 0.404627 2.84411 0.183922 2.20664 0.183922C1.56916 0.183922 1.04202 0.404627 0.625214 0.846038C0.208405 1.26293 0 1.79017 0 2.42777V17.7744C0 18.412 0.208405 18.9515 0.625214 19.3929C1.04202 19.8098 1.56916 20.0182 2.20664 20.0182C2.84411 20.0182 3.37125 19.8098 3.78806 19.3929C4.20487 18.9515 4.41328 18.412 4.41328 17.7744L4.41344 9.80898Z" fill="white"/>
<path fill-rule="evenodd" clip-rule="evenodd" d="M66.5594 15.523C67.4421 13.9535 67.8834 12.1879 67.8834 10.226C67.8834 8.26422 67.4421 6.51083 66.5594 4.96589C65.6768 3.39642 64.4631 2.18254 62.9185 1.32424C61.3983 0.441412 59.7189 0 57.88 0C56.0166 0 54.3248 0.441412 52.8047 1.32424C51.2846 2.18254 50.0832 3.39642 49.2006 4.96589C48.3179 6.51083 47.8766 8.26422 47.8766 10.226C47.8766 12.1879 48.3179 13.9535 49.2006 15.523C50.0832 17.0679 51.2846 18.2696 52.8047 19.1279C54.3248 19.9862 56.0166 20.4153 57.88 20.4153C59.7189 20.4153 61.3983 19.9862 62.9185 19.1279C64.4631 18.2696 65.6768 17.0679 66.5594 15.523ZM62.6978 7.02581C63.2127 7.95768 63.4701 9.02443 63.4701 10.226C63.4701 11.4277 63.2127 12.4944 62.6978 13.4263C62.2075 14.3582 61.5332 15.0816 60.6751 15.5966C59.8414 16.1115 58.9098 16.369 57.88 16.369C56.8502 16.369 55.9063 16.1115 55.0481 15.5966C54.2145 15.0816 53.5403 14.3582 53.0254 13.4263C52.535 12.4944 52.2898 11.4277 52.2898 10.226C52.2898 9.02443 52.535 7.95768 53.0254 7.02581C53.5403 6.06942 54.2145 5.33373 55.0481 4.81875C55.9063 4.30377 56.8502 4.04628 57.88 4.04628C58.9098 4.04628 59.8414 4.30377 60.6751 4.81875C61.5332 5.33373 62.2075 6.06942 62.6978 7.02581Z" fill="white"/>
<path d="M86.5065 0.404627C87.095 0.404627 87.5853 0.600811 87.9776 0.993178C88.3699 1.36102 88.566 1.82696 88.566 2.39098C88.566 2.68526 88.468 3.0531 88.2718 3.49451L81.3945 18.6497C81.2228 19.0666 80.9654 19.3976 80.6222 19.6428C80.3034 19.8881 79.9356 20.0229 79.5188 20.0475L79.1878 20.0843C78.771 20.0843 78.3787 19.9616 78.011 19.7164C77.6677 19.4467 77.398 19.0911 77.2019 18.6497L70.3613 3.49451C70.1897 3.10215 70.1038 2.70978 70.1038 2.31741C70.1038 1.82695 70.3123 1.38554 70.7291 0.993178C71.1459 0.576288 71.6607 0.367843 72.2737 0.367843C72.7395 0.367843 73.1686 0.490458 73.5609 0.735686C73.9532 0.980915 74.2474 1.32424 74.4436 1.76565L79.5188 13.3895L84.5573 1.80243C84.7535 1.3365 85.0232 0.980915 85.3664 0.735686C85.7097 0.490458 86.0897 0.380104 86.5065 0.404627Z" fill="white"/>
<path fill-rule="evenodd" clip-rule="evenodd" d="M108.817 11.1824C109.258 10.8146 109.491 10.3364 109.516 9.74785C109.516 8.00673 109.087 6.38822 108.229 4.89232C107.371 3.39642 106.218 2.20706 104.772 1.32424C103.35 0.441412 101.829 0 100.211 0C98.5685 0 97.0239 0.429151 95.5773 1.28745C94.1307 2.12123 92.9661 3.33512 92.0834 4.9291C91.2008 6.52309 90.7595 8.37457 90.7595 10.4835C90.7595 12.3718 91.1763 14.0761 92.0099 15.5966C92.8435 17.0925 94.0204 18.2696 95.5405 19.1279C97.0852 19.9862 98.8872 20.4153 100.947 20.4153C102.124 20.4153 103.288 20.2191 104.441 19.8268C105.593 19.4344 106.512 18.9562 107.199 18.3922C107.885 17.8527 108.229 17.2519 108.229 16.5897C108.229 16.0993 108.045 15.6701 107.677 15.3023C107.309 14.9344 106.868 14.7505 106.353 14.7505C105.961 14.7505 105.544 14.8609 105.103 15.0816C104.98 15.1552 104.747 15.3023 104.404 15.523C104.085 15.7192 103.644 15.9154 103.08 16.1115C102.516 16.2832 101.731 16.369 100.726 16.369C99.4021 16.369 98.213 15.9644 97.1587 15.1552C96.1044 14.3214 95.4302 13.1811 95.136 11.7342H107.272C107.861 11.7342 108.376 11.5503 108.817 11.1824ZM95.1727 8.05577C95.6876 5.38278 97.3671 4.04628 100.211 4.04628C101.364 4.04628 102.393 4.41412 103.301 5.14981C104.208 5.88549 104.71 6.76832 104.808 7.79828V8.05577H95.1727Z" fill="white"/>
<path d="M127.672 15.8908C127.672 16.3323 127.782 16.7001 128.003 16.9944C128.885 18.196 130.026 19.0666 131.423 19.6061C132.821 20.1456 134.328 20.4153 135.947 20.4153C137.124 20.4153 138.264 20.1823 139.367 19.7164C140.495 19.2505 141.414 18.5761 142.125 17.6933C142.836 16.7859 143.192 15.7314 143.192 14.5298C143.192 13.2056 142.885 12.1388 142.272 11.3296C141.659 10.5203 140.912 9.91951 140.029 9.52715C139.146 9.13478 138.043 8.75467 136.719 8.38683C135.763 8.11708 135.015 7.89637 134.476 7.72471C133.961 7.52853 133.532 7.27104 133.188 6.95224C132.845 6.60892 132.674 6.16751 132.674 5.62801C132.674 4.27925 133.605 3.60487 135.469 3.60487C136.351 3.60487 137.136 3.76427 137.822 4.08306C138.533 4.40186 139.11 4.83101 139.551 5.37051C139.894 5.71383 140.335 5.8855 140.875 5.8855C141.316 5.8855 141.708 5.75062 142.052 5.48087C142.518 5.11302 142.75 4.64709 142.75 4.08306C142.75 3.5926 142.591 3.15119 142.272 2.75883C141.561 1.85148 140.581 1.16484 139.33 0.698902C138.08 0.232967 136.829 0 135.579 0C134.353 0 133.188 0.245229 132.085 0.735686C131.006 1.20162 130.124 1.876 129.437 2.75883C128.775 3.61713 128.444 4.63483 128.444 5.81193C128.444 7.16069 128.763 8.23969 129.4 9.04895C130.062 9.83368 130.835 10.4222 131.717 10.8146C132.624 11.207 133.789 11.5993 135.211 11.9917C136.584 12.3595 137.589 12.7274 138.227 13.0952C138.889 13.4631 139.22 14.0026 139.22 14.7137C139.22 16.087 138.264 16.8104 136.351 16.884C135.223 16.884 134.255 16.7001 133.446 16.3322C132.661 15.9644 131.901 15.4004 131.166 14.6402C130.7 14.1742 130.209 13.9413 129.695 13.9413C129.327 13.9413 128.971 14.0516 128.628 14.2723C127.991 14.7137 127.672 15.2532 127.672 15.8908Z" fill="white"/>
<path fill-rule="evenodd" clip-rule="evenodd" d="M164.538 9.74785C164.514 10.3364 164.281 10.8146 163.839 11.1824C163.398 11.5503 162.883 11.7342 162.295 11.7342H150.158C150.452 13.1811 151.127 14.3214 152.181 15.1552C153.235 15.9644 154.424 16.369 155.748 16.369C156.754 16.369 157.538 16.2832 158.102 16.1115C158.666 15.9154 159.107 15.7192 159.426 15.523C159.769 15.3023 160.002 15.1552 160.125 15.0816C160.566 14.8609 160.983 14.7505 161.375 14.7505C161.89 14.7505 162.332 14.9344 162.699 15.3023C163.067 15.6701 163.251 16.0993 163.251 16.5897C163.251 17.2519 162.908 17.8527 162.221 18.3922C161.535 18.9562 160.615 19.4344 159.463 19.8268C158.311 20.2191 157.146 20.4153 155.969 20.4153C153.91 20.4153 152.107 19.9862 150.563 19.1279C149.043 18.2696 147.866 17.0925 147.032 15.5966C146.199 14.0761 145.782 12.3718 145.782 10.4835C145.782 8.37457 146.223 6.52309 147.106 4.9291C147.988 3.33512 149.153 2.12123 150.6 1.28745C152.046 0.429151 153.591 0 155.234 0C156.852 0 158.372 0.441412 159.794 1.32424C161.24 2.20706 162.393 3.39642 163.251 4.89232C164.109 6.38822 164.538 8.00673 164.538 9.74785ZM155.234 4.04628C152.389 4.04628 150.71 5.38278 150.195 8.05577H159.831V7.79828C159.733 6.76832 159.23 5.88549 158.323 5.14981C157.416 4.41412 156.386 4.04628 155.234 4.04628Z" fill="white"/>
<path fill-rule="evenodd" clip-rule="evenodd" d="M185.868 0.625334C185.452 0.208444 184.924 0 184.287 0C183.65 0 183.122 0.220706 182.706 0.662118C182.289 1.07901 182.23 1.37215 182.23 2.00974C181.519 1.34762 180.257 0.731119 179.519 0.5058C178.448 0.178429 177.336 0 176.159 0C174.516 0 173.009 0.441412 171.636 1.32424C170.287 2.18254 169.221 3.39642 168.436 4.96589C167.651 6.51083 167.259 8.26422 167.259 10.226C167.259 12.1879 167.651 13.9413 168.436 15.4862C169.245 17.0312 170.336 18.245 171.709 19.1279C173.082 19.9862 174.615 20.4153 176.306 20.4153C177.459 20.4153 178.55 20.1701 179.58 19.6796C180.634 19.1646 181.467 18.5516 182.08 17.8404C182.105 18.478 182.313 19.0052 182.706 19.4221C183.122 19.839 183.65 20.0475 184.287 20.0475C184.924 20.0475 185.452 19.839 185.868 19.4221C186.285 18.9807 186.494 18.4412 186.494 17.8036V2.24385C186.494 1.58173 186.285 1.04222 185.868 0.625334ZM180.756 14.6402C179.751 15.7927 178.452 16.369 176.858 16.369C175.264 16.369 173.965 15.7927 172.96 14.6402C171.979 13.4631 171.488 11.9917 171.488 10.226C171.488 8.4604 171.991 6.98903 172.996 5.81193C174.002 4.63483 175.289 4.04628 176.858 4.04628C178.452 4.04628 179.751 4.63483 180.756 5.81193C181.762 6.98903 182.264 8.4604 182.264 10.226C182.264 11.9917 181.762 13.4631 180.756 14.6402Z" fill="white"/>
<path d="M190.136 16.9944C189.916 16.7001 189.805 16.3323 189.805 15.8908C189.805 15.2532 190.124 14.7137 190.762 14.2723C191.105 14.0516 191.46 13.9413 191.828 13.9413C192.343 13.9413 192.833 14.1742 193.299 14.6402C194.035 15.4004 194.795 15.9644 195.579 16.3322C196.388 16.7001 197.357 16.884 198.485 16.884C200.397 16.8104 201.353 16.087 201.353 14.7137C201.353 14.0026 201.022 13.4631 200.36 13.0952C199.723 12.7274 198.718 12.3595 197.345 11.9917C195.923 11.5993 194.758 11.207 193.851 10.8146C192.968 10.4222 192.196 9.83368 191.534 9.04895C190.896 8.23969 190.578 7.16069 190.578 5.81193C190.578 4.63483 190.909 3.61713 191.571 2.75883C192.257 1.876 193.14 1.20162 194.219 0.735686C195.322 0.245229 196.487 0 197.712 0C198.963 0 200.213 0.232967 201.464 0.698902C202.714 1.16484 203.695 1.85148 204.406 2.75883C204.725 3.15119 204.884 3.5926 204.884 4.08306C204.884 4.64709 204.651 5.11302 204.185 5.48087C203.842 5.75062 203.45 5.8855 203.008 5.8855C202.469 5.8855 202.028 5.71383 201.684 5.37051C201.243 4.83101 200.667 4.40186 199.956 4.08306C199.269 3.76427 198.485 3.60487 197.602 3.60487C195.739 3.60487 194.807 4.27925 194.807 5.62801C194.807 6.16751 194.979 6.60892 195.322 6.95224C195.665 7.27104 196.094 7.52853 196.609 7.72471C197.149 7.89637 197.896 8.11708 198.853 8.38683C200.177 8.75467 201.28 9.13478 202.162 9.52715C203.045 9.91951 203.793 10.5203 204.406 11.3296C205.019 12.1388 205.325 13.2056 205.325 14.5298C205.325 15.7314 204.97 16.7859 204.259 17.6933C203.548 18.5761 202.628 19.2505 201.5 19.7164C200.397 20.1823 199.257 20.4153 198.08 20.4153C196.462 20.4153 194.954 20.1456 193.557 19.6061C192.159 19.0666 191.019 18.196 190.136 16.9944Z" fill="white"/>
<path d="M51.5789 38.3518C51.5637 38.6249 51.4499 38.8602 51.2374 39.0575C51.0249 39.2396 50.7745 39.3306 50.4862 39.3306H42.4732C42.5794 40.4385 42.9968 41.3263 43.7252 41.994C44.4689 42.6618 45.3718 42.9957 46.4342 42.9957C47.1626 42.9957 47.7545 42.8894 48.2098 42.677C48.6651 42.4645 49.0672 42.1913 49.4163 41.8575C49.6439 41.7209 49.864 41.6526 50.0764 41.6526C50.3344 41.6526 50.5469 41.7436 50.7138 41.9257C50.896 42.1079 50.987 42.3203 50.987 42.5631C50.987 42.8818 50.8352 43.1702 50.5317 43.4282C50.0916 43.8683 49.5073 44.2401 48.7789 44.5436C48.0504 44.8471 47.3068 44.9989 46.548 44.9989C45.3187 44.9989 44.2336 44.7409 43.2927 44.2249C42.367 43.7089 41.6461 42.9881 41.1301 42.0623C40.6293 41.1366 40.3789 40.0894 40.3789 38.9209C40.3789 37.6461 40.6369 36.5306 41.1529 35.5745C41.6841 34.6033 42.3746 33.8596 43.2244 33.3437C44.0895 32.8277 45.0152 32.5697 46.0017 32.5697C46.9729 32.5697 47.8835 32.8201 48.7334 33.3209C49.5832 33.8217 50.2661 34.5122 50.7821 35.3924C51.2981 36.2726 51.5637 37.2591 51.5789 38.3518ZM46.0017 34.5729C45.1518 34.5729 44.4158 34.8157 43.7935 35.3014C43.1713 35.7718 42.7616 36.5079 42.5643 37.5095H49.2797V37.3274C49.2038 36.5231 48.8396 35.8629 48.187 35.3469C47.5496 34.8309 46.8212 34.5729 46.0017 34.5729Z" fill="white"/>
<path d="M66.5601 27.9258C66.8788 27.9258 67.1368 28.032 67.3341 28.2445C67.5466 28.4418 67.6528 28.6998 67.6528 29.0185V43.6786C67.6528 43.9821 67.5466 44.2401 67.3341 44.4526C67.1368 44.665 66.8788 44.7713 66.5601 44.7713C66.2414 44.7713 65.9834 44.6726 65.7861 44.4753C65.5889 44.2629 65.4902 43.9973 65.4902 43.6786V43.0412C65.1108 43.5875 64.5721 44.0504 63.874 44.4298C63.191 44.8092 62.455 44.9989 61.6658 44.9989C60.6339 44.9989 59.7005 44.7333 58.8658 44.2022C58.0312 43.671 57.371 42.935 56.8854 41.994C56.3997 41.0379 56.1569 39.968 56.1569 38.7843C56.1569 37.6006 56.3921 36.5382 56.8626 35.5973C57.3482 34.6412 58.0084 33.8976 58.8431 33.3664C59.6778 32.8353 60.5959 32.5697 61.5975 32.5697C62.4019 32.5697 63.1455 32.7366 63.8284 33.0705C64.5114 33.4044 65.0653 33.8369 65.4902 34.368V29.0185C65.4902 28.6998 65.5889 28.4418 65.7861 28.2445C65.9834 28.032 66.2414 27.9258 66.5601 27.9258ZM61.9162 42.9957C62.6295 42.9957 63.2593 42.8135 63.8057 42.4493C64.3672 42.0851 64.7997 41.5843 65.1032 40.9469C65.4219 40.3095 65.5813 39.5886 65.5813 38.7843C65.5813 37.9951 65.4219 37.2819 65.1032 36.6445C64.7997 35.9919 64.3672 35.4835 63.8057 35.1193C63.2593 34.755 62.6295 34.5729 61.9162 34.5729C61.203 34.5729 60.5656 34.755 60.004 35.1193C59.4577 35.4835 59.0252 35.9919 58.7065 36.6445C58.403 37.2819 58.2512 37.9951 58.2512 38.7843C58.2512 39.5886 58.403 40.3095 58.7065 40.9469C59.0252 41.5843 59.4577 42.0851 60.004 42.4493C60.5656 42.8135 61.203 42.9957 61.9162 42.9957Z" fill="white"/>
<path d="M81.391 32.8428C81.7097 32.8428 81.9677 32.9491 82.165 33.1615C82.3774 33.374 82.4837 33.632 82.4837 33.9355V39.9908C82.4837 41.5691 82.0436 42.7984 81.1634 43.6786C80.2983 44.5436 79.069 44.9761 77.4756 44.9761C75.8972 44.9761 74.6756 44.5436 73.8105 43.6786C72.9455 42.7984 72.513 41.5691 72.513 39.9908V33.9355C72.513 33.632 72.6116 33.374 72.8089 33.1615C73.0214 32.9491 73.2794 32.8428 73.5829 32.8428C73.9016 32.8428 74.1596 32.9491 74.3569 33.1615C74.5693 33.374 74.6756 33.632 74.6756 33.9355V39.9908C74.6756 41.9789 75.6089 42.9729 77.4756 42.9729C78.4013 42.9729 79.107 42.7225 79.5926 42.2217C80.0783 41.7209 80.3211 40.9772 80.3211 39.9908V33.9355C80.3211 33.632 80.4197 33.374 80.617 33.1615C80.8295 32.9491 81.0875 32.8428 81.391 32.8428Z" fill="white"/>
<path d="M93.2013 32.5697C94.4003 32.5697 95.3943 32.7594 96.1835 33.1388C96.9878 33.5182 97.39 34.0038 97.39 34.5957C97.39 34.8537 97.3065 35.0889 97.1396 35.3014C96.9726 35.4987 96.7601 35.5973 96.5022 35.5973C96.3049 35.5973 96.1455 35.567 96.0241 35.5063C95.9179 35.4455 95.7661 35.3469 95.5688 35.2103C95.4778 35.1193 95.3336 35.013 95.1363 34.8916C94.9542 34.8006 94.6962 34.7247 94.3623 34.664C94.0284 34.6033 93.7249 34.5729 93.4518 34.5729C92.6626 34.5729 91.9645 34.755 91.3574 35.1193C90.7504 35.4835 90.2799 35.9919 89.9461 36.6445C89.6122 37.2819 89.4453 37.9951 89.4453 38.7843C89.4453 39.5886 89.6046 40.3095 89.9233 40.9469C90.2572 41.5843 90.7201 42.0851 91.3119 42.4493C91.9038 42.8135 92.5791 42.9957 93.3379 42.9957C94.1271 42.9957 94.7645 42.8743 95.2501 42.6314C95.3564 42.5707 95.5005 42.4721 95.6826 42.3355C95.8344 42.2141 95.9634 42.123 96.0696 42.0623C96.191 42.0016 96.3352 41.9713 96.5022 41.9713C96.8057 41.9713 97.0409 42.0699 97.2078 42.2672C97.39 42.4493 97.481 42.6921 97.481 42.9957C97.481 43.3144 97.2761 43.6331 96.8664 43.9518C96.4718 44.2553 95.933 44.5057 95.2501 44.703C94.5824 44.9003 93.8615 44.9989 93.0875 44.9989C91.9341 44.9989 90.9173 44.7333 90.0371 44.2022C89.1569 43.6558 88.474 42.9122 87.9884 41.9713C87.5179 41.0152 87.2827 39.9529 87.2827 38.7843C87.2827 37.6157 87.5331 36.561 88.0339 35.6201C88.5347 34.664 89.2328 33.9203 90.1282 33.3892C91.0236 32.8428 92.048 32.5697 93.2013 32.5697Z" fill="white"/>
<path d="M112.928 32.6835C113.246 32.6835 113.504 32.7897 113.702 33.0022C113.914 33.1995 114.02 33.4651 114.02 33.7989V43.6786C114.02 43.9821 113.914 44.2401 113.702 44.4526C113.504 44.665 113.246 44.7713 112.928 44.7713C112.609 44.7713 112.351 44.6726 112.154 44.4753C111.956 44.2629 111.858 43.9973 111.858 43.6786V43.0867C111.463 43.6179 110.924 44.0732 110.242 44.4526C109.559 44.8168 108.823 44.9989 108.033 44.9989C107.001 44.9989 106.061 44.7333 105.211 44.2022C104.376 43.671 103.716 42.935 103.23 41.994C102.76 41.0379 102.525 39.968 102.525 38.7843C102.525 37.6006 102.76 36.5382 103.23 35.5973C103.716 34.6412 104.376 33.8976 105.211 33.3664C106.045 32.8353 106.964 32.5697 107.965 32.5697C108.769 32.5697 109.513 32.7366 110.196 33.0705C110.894 33.4044 111.448 33.8293 111.858 34.3453V33.7989C111.858 33.4802 111.956 33.2147 112.154 33.0022C112.351 32.7897 112.609 32.6835 112.928 32.6835ZM108.284 42.9957C108.997 42.9957 109.627 42.8135 110.173 42.4493C110.735 42.0851 111.167 41.5843 111.471 40.9469C111.79 40.3095 111.949 39.5886 111.949 38.7843C111.949 37.9951 111.79 37.2819 111.471 36.6445C111.167 36.0071 110.735 35.5063 110.173 35.142C109.627 34.7626 108.997 34.5729 108.284 34.5729C107.571 34.5729 106.933 34.755 106.372 35.1193C105.825 35.4835 105.393 35.9843 105.074 36.6217C104.771 37.2591 104.619 37.98 104.619 38.7843C104.619 39.5886 104.771 40.3095 105.074 40.9469C105.393 41.5843 105.825 42.0851 106.372 42.4493C106.933 42.8135 107.571 42.9957 108.284 42.9957Z" fill="white"/>
<path d="M123.515 34.9599V41.7436C123.515 42.5024 123.856 42.8818 124.539 42.8818C124.646 42.8818 124.79 42.8591 124.972 42.8135C125.154 42.7528 125.298 42.7225 125.404 42.7225C125.602 42.7225 125.769 42.806 125.905 42.9729C126.042 43.1398 126.11 43.3523 126.11 43.6103C126.11 43.929 125.928 44.2022 125.564 44.4298C125.199 44.6574 124.79 44.7713 124.334 44.7713C123.834 44.7713 123.371 44.7182 122.946 44.6119C122.536 44.5057 122.164 44.2401 121.83 43.8152C121.512 43.3751 121.352 42.7149 121.352 41.8347V34.9599H120.032C119.744 34.9599 119.501 34.8689 119.304 34.6867C119.121 34.4895 119.03 34.2466 119.03 33.9583C119.03 33.6699 119.121 33.4347 119.304 33.2526C119.501 33.0705 119.744 32.9794 120.032 32.9794H121.352V31.0672C121.352 30.7637 121.451 30.5057 121.648 30.2933C121.861 30.0808 122.126 29.9746 122.445 29.9746C122.749 29.9746 122.999 30.0808 123.196 30.2933C123.409 30.5057 123.515 30.7637 123.515 31.0672V32.9794H125.404C125.693 32.9794 125.928 33.0781 126.11 33.2754C126.307 33.4575 126.406 33.6927 126.406 33.9811C126.406 34.2694 126.307 34.5046 126.11 34.6867C125.928 34.8689 125.693 34.9599 125.404 34.9599H123.515Z" fill="white"/>
<path d="M133.272 43.6786C133.272 43.9821 133.166 44.2401 132.953 44.4526C132.756 44.665 132.498 44.7713 132.179 44.7713C131.876 44.7713 131.618 44.665 131.405 44.4526C131.208 44.2401 131.109 43.9821 131.109 43.6786V33.8217C131.109 33.5182 131.208 33.2602 131.405 33.0477C131.618 32.8353 131.876 32.729 132.179 32.729C132.498 32.729 132.756 32.8353 132.953 33.0477C133.166 33.2602 133.272 33.5182 133.272 33.8217V43.6786ZM132.179 31.2266C131.739 31.2266 131.421 31.1507 131.223 30.9989C131.041 30.832 130.95 30.574 130.95 30.225V29.8607C130.95 29.4965 131.049 29.2385 131.246 29.0868C131.459 28.935 131.777 28.8591 132.202 28.8591C132.627 28.8591 132.931 28.9426 133.113 29.1095C133.31 29.2613 133.409 29.5117 133.409 29.8607V30.225C133.409 30.5892 133.31 30.8472 133.113 30.9989C132.915 31.1507 132.604 31.2266 132.179 31.2266Z" fill="white"/>
<path d="M149.965 38.8071C149.965 39.9908 149.699 41.0531 149.168 41.994C148.637 42.935 147.909 43.671 146.983 44.2022C146.072 44.7333 145.063 44.9989 143.955 44.9989C142.847 44.9989 141.831 44.7333 140.905 44.2022C139.994 43.671 139.273 42.935 138.742 41.994C138.211 41.0531 137.945 39.9908 137.945 38.8071C137.945 37.6233 138.211 36.5534 138.742 35.5973C139.273 34.6412 139.994 33.8976 140.905 33.3664C141.831 32.8353 142.847 32.5697 143.955 32.5697C145.063 32.5697 146.072 32.8353 146.983 33.3664C147.909 33.8976 148.637 34.6412 149.168 35.5973C149.699 36.5534 149.965 37.6233 149.965 38.8071ZM147.802 38.8071C147.802 37.9875 147.628 37.2591 147.279 36.6217C146.945 35.9691 146.482 35.4683 145.89 35.1193C145.313 34.755 144.669 34.5729 143.955 34.5729C143.242 34.5729 142.589 34.755 141.998 35.1193C141.421 35.4683 140.958 35.9691 140.609 36.6217C140.275 37.2591 140.108 37.9875 140.108 38.8071C140.108 39.6114 140.275 40.3323 140.609 40.9697C140.958 41.607 141.421 42.1079 141.998 42.4721C142.589 42.8211 143.242 42.9957 143.955 42.9957C144.669 42.9957 145.313 42.8211 145.89 42.4721C146.482 42.1079 146.945 41.607 147.279 40.9697C147.628 40.3323 147.802 39.6114 147.802 38.8071Z" fill="white"/>
<path d="M160.85 32.5697C163.582 32.5697 164.948 34.2087 164.948 37.4867V43.6786C164.948 43.9821 164.842 44.2401 164.629 44.4526C164.432 44.665 164.174 44.7713 163.855 44.7713C163.552 44.7713 163.294 44.665 163.081 44.4526C162.884 44.2401 162.785 43.9821 162.785 43.6786V37.5095C162.785 36.6141 162.58 35.9008 162.171 35.3697C161.761 34.8385 161.093 34.5729 160.167 34.5729C159.56 34.5729 159.006 34.7095 158.506 34.9827C158.02 35.2407 157.633 35.5973 157.345 36.0526C157.072 36.4927 156.935 36.9783 156.935 37.5095V43.6786C156.935 43.9821 156.829 44.2401 156.616 44.4526C156.419 44.665 156.161 44.7713 155.842 44.7713C155.524 44.7713 155.266 44.6726 155.068 44.4753C154.871 44.2629 154.772 43.9973 154.772 43.6786V33.9355C154.772 33.632 154.871 33.374 155.068 33.1615C155.281 32.9491 155.539 32.8428 155.842 32.8428C156.161 32.8428 156.419 32.9491 156.616 33.1615C156.829 33.374 156.935 33.632 156.935 33.9355V34.7323C157.33 34.1252 157.876 33.6168 158.574 33.2071C159.287 32.7821 160.046 32.5697 160.85 32.5697Z" fill="white"/>
</svg>
